<svg xmlns="http://www.w3.org/2000/svg" id="Layer_1" data-name="Layer 1" width="365.68" height="449.47" version="1.1">
    <style id="style109"/>
    <defs id="defs14">
        <style>
            .cls-1 {
               fill:#fff
            }
            
        </style>
    </defs>
    <path d="M145.11 503.18c1.88-2 1.32-4.71 1.32-7.09 0-12.41.34-24.8.58-37.2.21-10.8.12-21.59.3-32.38.15-9.51.27-19 .46-28.53.35-18.35.24-36.71.56-55.06q.34-19.64.53-39.26c.13-12.66.15-25.32.27-38s.39-25.32.5-38q.27-30.86.43-61.71c.06-11.82 0-23.63.09-35.45.06-14 .16-28.05.2-42.08q0-12.1.3-24.21c0-2.49.26-5.12-1-7.45 1.76-1.54 3.71-1.68 5.79-1.61 6.71.24 13.41.53 20.12.54 12 0 24.09.54 36.14.62l46.39.32c11.39.08 22.78.09 34.16.19 4.32 0 8.64.35 13 .32 7.63-.06 15.26 0 22.89.12a76.09 76.09 0 0011.19-.19c2.34-.29 4.72.25 7.11.2 8-.17 16-.15 23.94-.17h20.4c15.29-.08 30.58-.21 45.87-.28 4.15 0 8.31-.07 12.46-.24 2.11-.09 4.25.35 6.36.24 12.31-.6 24.64.12 37-.37 2.7-.11 5.41-.36 8.11-.59 1.13-.1 1.13-.16 3 .86-.19 2-.44 4.07-.48 6.17-.17 9.17-.22 18.36.08 27.52s0 18 .35 27c.43 11.12.22 22.26.34 33.39.08 7.56.2 15.11.41 22.67.35 12.47 0 25 .49 37.42.26 6.79 0 13.57.56 20.35.39 5.08.08 10.2.17 15.3.21 11.12.49 22.25.7 33.37.21 11.47.23 22.94.6 34.4.19 5.78 0 11.56.37 17.32.48 7.13.29 14.27.49 21.4.25 8.83.26 17.67.35 26.5 0 1.53-.05 3 .9 4.41.37.53.69 1.34.17 1.91-1 1-.7 2.21-.71 3.37-.12 12.49.74 24.95.9 37.43q.21 15.55.43 31.1c.15 9 .21 18 .45 27 .14 5.07-.12 10.19.7 15.25.29 1.77-.84 2.91-2.51 2.47-3-.79-6.05.07-9.07-.15-1-.07-2 .1-3 .08-3 0-6.1 0-9.14-.08q-18.47-.36-36.92-.36c-5.34 0-10.68.15-16 .24h-1.53c-14.26-.4-28.53 0-42.8-.2-6.54-.1-13.08-.1-19.63-.06s-13.05.25-19.58.28c-13.76.06-27.52-.08-41.27.15-5.6.1-11.21.28-16.81.23-9.07-.09-18.13.28-27.19.19-8.24-.09-16.46.49-24.69.39-8.82-.11-17.63.21-26.45.2-5.33 0-10.69.44-16 .33s-10.51.18-15.76.29c-9.68.2-19.37-.06-29 .5-1.94.11-3.89 0-5.84 0a2.12 2.12 0 01-2.55-1.32zm361.31-4.48a5.2 5.2 0 00.34-2.28v-17.08c0-6.2-.31-12.39-.38-18.57-.05-5.6-.44-11.18-.09-16.8.31-5.15-.3-10.36-.21-15.53.15-7.9-.08-15.8-.27-23.69-.2-8.07-.09-16.14-.47-24.2-.31-6.71-.13-13.43-.28-20.14-.16-7.39-.63-14.77-.64-22.16 0-6.87-.51-13.73-.32-20.61s-.35-13.75-.49-20.63c-.13-6.2 0-12.41-.25-18.6-.42-11-.18-22.09-.64-33.12-.3-7.11.11-14.25-.23-21.35-.3-6.29-.18-12.57-.46-18.85-.32-7.21-.18-14.44-.24-21.67 0-1.53.07-3 0-4.58-.11-3.72-.48-7.45-.35-11.17.39-11.65-.27-23.28-.48-34.91-.18-9.94-.54-19.86-.42-29.8.06-5.42.09-10.84-.14-16.27-.34-8.14-.95-16.3-.59-24.46a3.54 3.54 0 00-.37-2.34c-2.24-.71-4.62-.29-7-.29l-55.84-.11-44.6-.07c-.85 0-1.7 0-2.54.08-5.35.48-10.71.23-16.06.24-13.68 0-27.36-.14-41.05-.14-9.6 0-19.2.08-28.8.06q-10.44 0-20.89-.14c-8.08-.1-16.15 0-24.23-.09-12.75-.09-25.5-.18-38.25-.35-6.79-.09-13.58-.42-20.37-.53q-10.58-.18-21.15-.15c-2.55 0-5.06-.38-7.6-.4-5.09 0-10.18.71-15.27 0a1.59 1.59 0 00-1.95 1.52 13.86 13.86 0 00-.22 2q-.09 7.14-.13 14.28-.13 23.21-.25 46.41c-.06 14.62 0 29.24-.16 43.85-.16 14.19-.3 28.37-.52 42.55-.33 21.08-.35 42.16-.5 63.24-.05 6.72.13 13.44-.21 20.14-.27 5.44.27 10.87-.13 16.29-.2 2.73.41 5.45 0 8.14-.46 3.39-.17 6.77-.29 10.15-.22 5.94-.13 11.9-.2 17.85q-.39 33.53-.79 67-.24 20.38-.44 40.76-.12 12.09-.2 24.18c0 5.25.5 10.5 0 15.77-.28 2.84-.07 5.73-.08 8.38a2.1 2.1 0 001.68.56c6.2 0 12.41.14 18.61.08 10.62-.11 21.23-.39 31.85-.48 11.81-.1 23.62.12 35.43-.09 11-.19 22.1 0 33.14-.12 6.63-.07 13.25.1 19.88-.19s13.42-.1 20.13-.14c4.42 0 8.84-.11 13.25-.13h9.92c4.74.11 9.49-.17 14.24-.16 8.07 0 16.14-.06 24.21-.12 7.3-.06 14.61-.18 21.91-.22h19.85c4 0 7.95-.36 11.93-.36 11.56 0 23.11 0 34.67.2 9.76.15 19.51-.17 29.27-.07 4.73.05 9.47-.18 14.21-.22a4.82 4.82 0 002.52-.35z" transform="translate(-145.11 -55.18)" id="path18"/>
    
    <path d="M478.78 487.77c-1.34 1.85-1.32 3.66-.64 5.79 1.06-1.36-.21-3.19 1.32-4.07.92-.52 1.77-1.37 3.14-.95.33 1.79.74 3.59 1 5.41.14 1-.31 2-1.47 2-1 0-1.66.84-2.27.82-1.18-.13-1.11-1.05-1.61-1.45-.71.28-.39 1.35-1 1.47-1.13.3-1.4-.81-2.21-.9-1 0-1.61.75-2.32 1.29-.76 0-1.3-.45-1.94-.65a2.38 2.38 0 01-1.89-2.87 6.71 6.71 0 00-.29-2.51c-.23-.92-.33-1.88.85-2.34 1 .14 1.13.9 1.16 1.69s0 1.53.08 2.29A1.25 1.25 0 00472 494c.73 0 .94-.62 1-1.24s.14-1.36.29-2a1.12 1.12 0 01.83-.88c1.07.14.88 1.36 1.79 2a4.38 4.38 0 00.12-2.63c-.87-1.3-2.65.29-3.14-1.4 1.58-1.53 2.57-1.56 5.89-.08z" transform="translate(-145.11 -55.18)" id="path24"/>
</svg>
