<svg xmlns="http://www.w3.org/2000/svg" id="Layer_1" data-name="Layer 1" width="365.68" height="449.47" version="1.1">
    <style id="style109"/>
    <defs id="defs14">
        <style>
            .cls-1 {
               fill:#fff
            }

            @keyframes nudge {
               0%, 100% {
                  transform: translate(-150px, -55px);
               }
               
               50% {
                  transform: translate(-140px, -55px);

            }
}
            .water {
               animation: nudge 5s linear infinite;
               animation-direction: alternate;
            }
        </style>
    </defs>
    <path d="M145.11 503.18c1.88-2 1.32-4.71 1.32-7.09 0-12.41.34-24.8.58-37.2.21-10.8.12-21.59.3-32.38.15-9.51.27-19 .46-28.53.35-18.35.24-36.71.56-55.06q.34-19.64.53-39.26c.13-12.66.15-25.32.27-38s.39-25.32.5-38q.27-30.86.43-61.71c.06-11.82 0-23.63.09-35.45.06-14 .16-28.05.2-42.08q0-12.1.3-24.21c0-2.49.26-5.12-1-7.45 1.76-1.54 3.71-1.68 5.79-1.61 6.71.24 13.41.53 20.12.54 12 0 24.09.54 36.14.62l46.39.32c11.39.08 22.78.09 34.16.19 4.32 0 8.64.35 13 .32 7.63-.06 15.26 0 22.89.12a76.09 76.09 0 0011.19-.19c2.34-.29 4.72.25 7.11.2 8-.17 16-.15 23.94-.17h20.4c15.29-.08 30.58-.21 45.87-.28 4.15 0 8.31-.07 12.46-.24 2.11-.09 4.25.35 6.36.24 12.31-.6 24.64.12 37-.37 2.7-.11 5.41-.36 8.11-.59 1.13-.1 1.13-.16 3 .86-.19 2-.44 4.07-.48 6.17-.17 9.17-.22 18.36.08 27.52s0 18 .35 27c.43 11.12.22 22.26.34 33.39.08 7.56.2 15.11.41 22.67.35 12.47 0 25 .49 37.42.26 6.79 0 13.57.56 20.35.39 5.08.08 10.2.17 15.3.21 11.12.49 22.25.7 33.37.21 11.47.23 22.94.6 34.4.19 5.78 0 11.56.37 17.32.48 7.13.29 14.27.49 21.4.25 8.83.26 17.67.35 26.5 0 1.53-.05 3 .9 4.41.37.53.69 1.34.17 1.91-1 1-.7 2.21-.71 3.37-.12 12.49.74 24.95.9 37.43q.21 15.55.43 31.1c.15 9 .21 18 .45 27 .14 5.07-.12 10.19.7 15.25.29 1.77-.84 2.91-2.51 2.47-3-.79-6.05.07-9.07-.15-1-.07-2 .1-3 .08-3 0-6.1 0-9.14-.08q-18.47-.36-36.92-.36c-5.34 0-10.68.15-16 .24h-1.53c-14.26-.4-28.53 0-42.8-.2-6.54-.1-13.08-.1-19.63-.06s-13.05.25-19.58.28c-13.76.06-27.52-.08-41.27.15-5.6.1-11.21.28-16.81.23-9.07-.09-18.13.28-27.19.19-8.24-.09-16.46.49-24.69.39-8.82-.11-17.63.21-26.45.2-5.33 0-10.69.44-16 .33s-10.51.18-15.76.29c-9.68.2-19.37-.06-29 .5-1.94.11-3.89 0-5.84 0a2.12 2.12 0 01-2.55-1.32zm361.31-4.48a5.2 5.2 0 00.34-2.28v-17.08c0-6.2-.31-12.39-.38-18.57-.05-5.6-.44-11.18-.09-16.8.31-5.15-.3-10.36-.21-15.53.15-7.9-.08-15.8-.27-23.69-.2-8.07-.09-16.14-.47-24.2-.31-6.71-.13-13.43-.28-20.14-.16-7.39-.63-14.77-.64-22.16 0-6.87-.51-13.73-.32-20.61s-.35-13.75-.49-20.63c-.13-6.2 0-12.41-.25-18.6-.42-11-.18-22.09-.64-33.12-.3-7.11.11-14.25-.23-21.35-.3-6.29-.18-12.57-.46-18.85-.32-7.21-.18-14.44-.24-21.67 0-1.53.07-3 0-4.58-.11-3.72-.48-7.45-.35-11.17.39-11.65-.27-23.28-.48-34.91-.18-9.94-.54-19.86-.42-29.8.06-5.42.09-10.84-.14-16.27-.34-8.14-.95-16.3-.59-24.46a3.54 3.54 0 00-.37-2.34c-2.24-.71-4.62-.29-7-.29l-55.84-.11-44.6-.07c-.85 0-1.7 0-2.54.08-5.35.48-10.71.23-16.06.24-13.68 0-27.36-.14-41.05-.14-9.6 0-19.2.08-28.8.06q-10.44 0-20.89-.14c-8.08-.1-16.15 0-24.23-.09-12.75-.09-25.5-.18-38.25-.35-6.79-.09-13.58-.42-20.37-.53q-10.58-.18-21.15-.15c-2.55 0-5.06-.38-7.6-.4-5.09 0-10.18.71-15.27 0a1.59 1.59 0 00-1.95 1.52 13.86 13.86 0 00-.22 2q-.09 7.14-.13 14.28-.13 23.21-.25 46.41c-.06 14.62 0 29.24-.16 43.85-.16 14.19-.3 28.37-.52 42.55-.33 21.08-.35 42.16-.5 63.24-.05 6.72.13 13.44-.21 20.14-.27 5.44.27 10.87-.13 16.29-.2 2.73.41 5.45 0 8.14-.46 3.39-.17 6.77-.29 10.15-.22 5.94-.13 11.9-.2 17.85q-.39 33.53-.79 67-.24 20.38-.44 40.76-.12 12.09-.2 24.18c0 5.25.5 10.5 0 15.77-.28 2.84-.07 5.73-.08 8.38a2.1 2.1 0 001.68.56c6.2 0 12.41.14 18.61.08 10.62-.11 21.23-.39 31.85-.48 11.81-.1 23.62.12 35.43-.09 11-.19 22.1 0 33.14-.12 6.63-.07 13.25.1 19.88-.19s13.42-.1 20.13-.14c4.42 0 8.84-.11 13.25-.13h9.92c4.74.11 9.49-.17 14.24-.16 8.07 0 16.14-.06 24.21-.12 7.3-.06 14.61-.18 21.91-.22h19.85c4 0 7.95-.36 11.93-.36 11.56 0 23.11 0 34.67.2 9.76.15 19.51-.17 29.27-.07 4.73.05 9.47-.18 14.21-.22a4.82 4.82 0 002.52-.35z" transform="translate(-145.11 -55.18)" id="path18"/>
    <path class="cls-1" d="M506.42 498.7a4.82 4.82 0 01-2.47.38c-4.74 0-9.48.27-14.21.22-9.76-.1-19.51.22-29.27.07-11.56-.17-23.11-.19-34.67-.2-4 0-7.95.32-11.93.36-6.62.06-13.24 0-19.85 0-7.3 0-14.61.16-21.91.22-8.07.06-16.14.14-24.21.12-4.75 0-9.5.27-14.24.16-3.31-.07-6.62-.05-9.92 0-4.41 0-8.83.11-13.25.13-6.71 0-13.43-.16-20.13.14s-13.25.12-19.88.19c-11 .12-22.09-.07-33.14.12-11.81.21-23.62 0-35.43.09-10.62.09-21.23.37-31.85.48-6.2.06-12.41 0-18.61-.08a2.1 2.1 0 01-1.68-.56c0-2.65-.2-5.54.08-8.38.52-5.27 0-10.52 0-15.77q.07-12.09.2-24.18.21-20.38.44-40.76.39-33.51.79-67c.07-5.95 0-11.91.2-17.85.12-3.38-.17-6.76.29-10.15.36-2.69-.25-5.41 0-8.14.4-5.42-.14-10.85.13-16.29.34-6.7.16-13.42.21-20.14.15-21.08.17-42.16.5-63.24.22-14.18.36-28.36.52-42.55.16-14.61.1-29.23.16-43.85q.11-23.21.25-46.41 0-7.14.13-14.28a13.86 13.86 0 01.22-2 1.59 1.59 0 011.92-1.55c5.09.76 10.18 0 15.27 0 2.54 0 5 .41 7.6.4q10.57 0 21.15.15c6.79.11 13.58.44 20.37.53 12.75.17 25.5.26 38.25.35 8.08.06 16.15 0 24.23.09q10.44.12 20.89.14c9.6 0 19.2-.07 28.8-.06 13.69 0 27.37.16 41.05.14 5.35 0 10.71.24 16.06-.24.84-.08 1.69-.08 2.54-.08l44.61.07 55.84.11c2.35 0 4.73-.42 7 .29a3.54 3.54 0 01.37 2.34c-.36 8.16.25 16.32.59 24.46.23 5.43.2 10.85.14 16.27-.12 9.94.24 19.86.42 29.8.21 11.63.87 23.26.48 34.91-.13 3.72.24 7.45.35 11.17v4.58c.06 7.23-.08 14.46.24 21.67.28 6.28.16 12.56.46 18.85.34 7.1-.07 14.24.23 21.35.46 11 .22 22.08.64 33.12.24 6.19.12 12.4.25 18.6.14 6.88.68 13.76.49 20.63s.31 13.74.32 20.61c0 7.39.48 14.77.64 22.16.15 6.71 0 13.43.28 20.14.38 8.06.27 16.13.47 24.2.19 7.89.42 15.79.27 23.69-.09 5.17.52 10.38.21 15.53-.35 5.62 0 11.2.09 16.8.07 6.18.38 12.37.38 18.57v17.08a5.2 5.2 0 01-.37 2.28zM173.84 341.51h-.08c0 4.24 0 8.49-.06 12.74q-.27 15.66-.61 31.33c0 2.4.53 2.91 3 3s5.08-.44 7.63-.42c13 .12 26-.45 39-.74 7.81-.17 15.63-.19 23.44-.48 8.06-.3 16.13-.07 24.2-.38 6.45-.25 12.92-.12 19.38-.12 15.55 0 31.1.06 46.65-.13s31.27 0 46.91 0c6.62 0 13.24 0 19.87-.1 2.62 0 5.26-.32 7.85-.09s5.26.16 7.87.13c7.47-.09 14.95-.24 22.42-.07 5.26.12 10.52.48 15.77.31 6.52-.21 13 .21 19.53-.14a5.2 5.2 0 011.52.14c1.51.4 3 .05 4.56.12s2.09-1 1.71-2.41c-.14-.56-.62-1-.54-1.67.43-3.24-.17-6.43-.38-9.65-.37-5.76-.18-11.54-.48-17.32-.25-4.82-.19-9.67-.33-14.5-.2-6.46 0-12.91-.34-19.37-.28-5.51 0-11-.32-16.55-.48-8.74-.08-17.5-.65-26.23-.25-3.89-.28-7.8-.3-11.7-.05-8.67-.49-17.33-.54-26-.06-10.45-.24-20.9-.46-31.35-.07-3.31.09-6.63-.09-9.94-.6-11.2-.39-22.43-.68-33.64-.25-9.58-.26-19.17-.4-28.76-.09-6 0-12.07-.2-18.1-.44-12.24-.09-24.47-.25-36.71 0-3.17-1-4.28-4.19-4.28-3.91 0-7.83-.18-11.72.13-7.54.6-15.1.1-22.65.66-4.81.36-9.67 0-14.51.09-10.61.09-21.23.26-31.85.32-11.73.07-23.46.06-35.19.06-6.87 0-13.74-.16-20.62.19-5.42.27-10.86-.07-16.3.3-3.52.23-7.08-.07-10.64.07-10.18.39-20.38.16-30.57.24-5.59 0-11.21-.2-16.82-.24-12.23-.11-24.38-.25-36.54-.25-6.1 0-12.19-.44-18.31-.33-4.56.09-9.16-.22-13.75-.32-5.09-.12-10.2 0-15.29-.18-3.49-.17-3.64-.17-4.59 3.17a5.74 5.74 0 00-.2 1.75c.09 3.48-.12 6.94 0 10.43.22 6.36.28 12.74.31 19.11.08 18.19 0 36.38-.09 54.56-.06 17.51 0 35-.23 52.53-.24 22.86 0 45.71-.55 68.56-.15 6.52 0 13.06-.13 19.59-.16 10.88-.12 21.76-.17 32.64zm304.94 146.26c-3.32-1.48-4.31-1.45-5.87.1.49 1.69 2.27.1 3.14 1.4a4.38 4.38 0 01-.12 2.63c-.91-.63-.72-1.85-1.79-2a1.12 1.12 0 00-.83.88c-.15.65-.2 1.33-.29 2s-.3 1.22-1 1.24a1.25 1.25 0 01-1.32-1.27c-.09-.76 0-1.53-.08-2.29s-.14-1.55-1.16-1.69c-1.18.46-1.08 1.42-.85 2.34a6.71 6.71 0 01.29 2.51 2.38 2.38 0 001.89 2.87c.64.2 1.18.69 1.94.65.71-.54 1.34-1.27 2.32-1.29.81.09 1.08 1.2 2.21.9.61-.12.29-1.19 1-1.47.5.4.43 1.32 1.61 1.45.61 0 1.27-.82 2.27-.82 1.16 0 1.61-1 1.47-2-.24-1.82-.65-3.62-1-5.41-1.37-.42-2.22.43-3.14.95-1.53.88-.26 2.71-1.32 4.07-.69-2.09-.71-3.9.63-5.75z" transform="translate(-145.11 -55.18)" id="path20"/>
    <path d="M173.84 341.51c0-10.88 0-21.76.17-32.64.1-6.53 0-13.07.13-19.59.52-22.85.31-45.7.55-68.56.19-17.51.17-35 .23-52.53.05-18.18.17-36.37.09-54.56 0-6.37-.09-12.75-.31-19.11-.12-3.49.09-7 0-10.43a5.74 5.74 0 01.2-1.75c.95-3.33 1-3.3 4.59-3.22 5.09.13 10.2.06 15.29.18 4.59.1 9.19.41 13.75.32 6.12-.11 12.21.34 18.31.33 12.16 0 24.31.19 36.46.25 5.61 0 11.23.29 16.82.24 10.19-.08 20.39.15 30.57-.24 3.56-.14 7.12.16 10.64-.07 5.44-.37 10.88 0 16.3-.3 6.88-.35 13.75-.18 20.62-.19 11.73 0 23.46 0 35.19-.06 10.62-.06 21.24-.23 31.85-.32 4.84-.05 9.7.27 14.51-.09 7.55-.56 15.11-.06 22.65-.66 3.89-.31 7.81-.14 11.72-.13 3.22 0 4.15 1.11 4.19 4.28.16 12.24-.19 24.47.25 36.71.22 6 .11 12.07.2 18.1.14 9.59.15 19.18.4 28.76.29 11.21.08 22.44.68 33.64.18 3.31 0 6.63.09 9.94.22 10.45.4 20.9.46 31.35.05 8.66.49 17.32.54 26 0 3.9 0 7.81.3 11.7.57 8.73.17 17.49.65 26.23.3 5.51 0 11 .32 16.55.33 6.46.14 12.91.34 19.37.14 4.83.08 9.68.33 14.5.3 5.78.11 11.56.48 17.32.21 3.22.81 6.41.38 9.65-.08.64.4 1.11.54 1.67.38 1.44-.26 2.48-1.71 2.41s-3.05.28-4.56-.12a5.2 5.2 0 00-1.52-.14c-6.5.35-13-.07-19.53.14-5.25.17-10.51-.19-15.77-.31-7.47-.17-15 0-22.42.07-2.61 0-5.23.1-7.87-.13s-5.23.06-7.85.09c-6.63.08-13.25.09-19.87.1-15.64 0-31.28-.16-46.91 0s-31.1.13-46.65.13c-6.46 0-12.93-.13-19.38.12-8.07.31-16.14.08-24.2.38-7.81.29-15.63.31-23.44.48-13 .29-26 .86-39 .74-2.55 0-5.07.5-7.63.42s-3-.58-3-3q.33-15.66.61-31.33c.07-4.25 0-8.5.06-12.74zm123.39-89.69c.49-.35.67-.41.74-.54 3.1-5.35 6.17-10.72 9.29-16.06 3.29-5.63 6.67-11.23 10-16.87 4-6.88 7.94-13.83 12-20.69 3.59-6 7.17-12.12 10.69-18.21 3.09-5.36 6.28-10.68 9.37-16 5.79-10.07 11.72-20.06 17.53-30.11 5.14-8.88 10.43-17.67 15.54-26.56 1.42-2.48 3.14-4.84 3.88-7.69.49-1.88 1.78-2.15 3.06-.69a10.82 10.82 0 011 1.74c1.17 2.16 2.24 4.39 3.52 6.48 3.74 6.08 7 12.44 10.58 18.59 5.79 9.89 11.22 20 16.86 30 5 8.8 10 17.55 15 26.32l13.26 23.2q5.82 10.17 11.63 20.34l6.7 11.72c2.44 4.28 4.85 8.57 7.3 12.84a9 9 0 002.65 3.44c.36-1.51-.22-2.72-.23-4-.07-8.56-.24-17.12-.38-25.69-.16-9.42-.36-18.85-.48-28.27-.12-8.66-.12-17.32-.26-26-.21-12.66-.68-25.32-.72-38-.05-15.46-.64-30.92-.46-46.39 0-1 .13-2-.77-2.9a9.42 9.42 0 00-1-.09h-16c-8.32 0-16.64 0-25 .08q-20.4.14-40.79.31h-13c-11.9.11-23.8 0-35.69.25-7.9.19-15.81.08-23.72.07-11.55 0-23.11-.08-34.66 0-6.88 0-13.76-.15-20.64 0-4.82.13-9.68-.17-14.5-.09-6.7.11-13.4-.29-20.11 0-5.5.23-11 0-16.56-.12-10-.16-20 0-30.05.13-1.56 0-3.23-.35-4.94.63-.14 9.09-.18 18.24-.13 27.4s0 18.52-.08 27.78l-.09 27.54c0 9.26-.08 18.53-.07 27.79s.29 18.33 0 27.47-.12 18.5-.13 27.74c0 9.06-.62 18.15.22 27.27a60.77 60.77 0 004-6.18c2.84-5 5.64-10.06 8.47-15.09 2.42-4.29 4.91-8.54 7.29-12.85 2.56-4.64 5.65-9 7.45-14.06a.62.62 0 01.33-.36c1.67-.64 2-2.29 2.59-3.62 1-2.13 2.13-4.25 3.32-6.23 3.42-5.66 6.56-11.48 10-17.1 3.7-6 7-12.26 10.54-18.32 3.41-5.75 6.81-11.53 9.76-17.54a6.8 6.8 0 012.59-2.92 3.55 3.55 0 012.47 2.2c1.63 2.88 3.3 5.73 5 8.58 4 6.73 7.79 13.54 11.68 20.31 3.4 5.89 6.89 11.72 10.2 17.65s7.25 11.58 10.28 17.71a5.56 5.56 0 00.92 1.52c1.72 1.68 2.55 4 3.65 6 1.58 2.9 3.22 5.77 4.83 8.66 1.46 2.51 2.83 4.93 4.27 7.48zm138.33 20.94c-.52 2.83.1 4.95 2.26 6.51a6.34 6.34 0 01.95.84c1.12 1.16 2.26 2.3 3.32 3.5a1.18 1.18 0 010 1.64 1.24 1.24 0 01-1.65.12A9.54 9.54 0 01439 284c-.94-.94-1.86-1.9-2.8-2.86-.25.31-.44.43-.44.55v3.05c0 1.87.73 2.91 2.59 3.1 2.36.24 4.77.41 6.72-1.46a10 10 0 011.45-1c2.63-1.7 2.6-1.69 2-4.67a1.89 1.89 0 00-.9-1.41 1.05 1.05 0 01-.62-1.3c.86-1.77 1.43-3.83 3.74-4.52a10.16 10.16 0 013.14 3.68c.62 1.4.2 2.07-1.3 2.23-.39 0-.83-.31-1.22.19-.45 1.05.32 2.12.18 3.19-.27 2.08 1.07 3.18 2.54 4a6.84 6.84 0 003.42.89c5.27-.05 10.54 0 15.8-.18a15.22 15.22 0 005.15-.7c-.18-10.21-.35-20.35-.52-30.56-1.59-.11-2.6-.51-3.24-1.92-2.55-5.56-5.84-10.73-8.91-16s-6.07-10.8-9.27-16.1c-3.82-6.32-7.31-12.83-10.94-19.26-5-8.87-10-17.76-15-26.61s-10.31-17.93-15.45-26.91c-3.16-5.52-6.28-11.06-9.43-16.59q-8-14.06-16-28.08c-.47-.83-.7-1.92-1.79-2.46-1.54 2.45-3.07 4.79-4.51 7.19-2.65 4.43-5.15 9-7.91 13.34-4 6.31-7.76 12.74-11.53 19.16-4.65 7.9-9.21 15.85-13.77 23.8q-5.58 9.72-11.33 19.31c-4 6.78-7.85 13.69-11.8 20.52-4.54 7.86-9.13 15.68-13.67 23.54-2.24 3.89-4.35 7.86-6.63 11.74-2.64 4.49-4.79 9.27-8 13.49a13.86 13.86 0 011.4 2.12 94.6 94.6 0 006.12 11.13c3.56 6.09 6.92 12.29 10.38 18.43a3.68 3.68 0 003.6 2.12c6.69.19 13.38.17 20.09.11 18.86-.17 37.73-.11 56.6 0 5.95 0 11.89-.45 17.84-.15.58 0 1.19.27 1.69-.22.61-2.62.51-5.21-.27-6.72-1.31.69-.68 3.78-3.55 2.9a10.2 10.2 0 012.61-4.78 4.77 4.77 0 001-5.34c-.87.17-1.36.91-2.19.92-.63 0-1.21-.07-1.49-.71a1.07 1.07 0 01.44-1.34 28.84 28.84 0 012.5-1.76c.9-.55.66-2 2.15-2.3a9.87 9.87 0 013.65 4.92c-.55 1.21-1.62.72-2.11 1.37a3.64 3.64 0 001.25 4.08 36.18 36.18 0 012.64 2.76 1.06 1.06 0 010 1.59c-.56.54-1.07.23-1.62 0-.85-.4-1.19-1.39-2.29-2.12.29 2.41-.15 4.49.46 6.65h11.13a2.73 2.73 0 001.83-.79c1.21-1.05 1.25-2.51.06-4.73-1.42.55-2.31 2-3.82 2.48-1.17-.71-1.41-1.48-.23-2.35s1.81-2.08 2.86-2.88c2.25-1.7 1.83-3.82 1.56-6.19-1.12.62-1.59 1.65-2.66 1.93-1-.37-1.31-1-.68-1.95a17.35 17.35 0 012.62-3.12 2.47 2.47 0 00.84-2.91c-.5-.75-1.6-.07-2.1-1.14.13-1.77 1.91-2.72 2.73-4.24a1 1 0 011.4-.2c1.35.95 2.73 1.9 3.1 3.49-.57 1.24-1.76.39-2.37 1.14-.73 2.61.81 4.15 2.75 5.4a3.41 3.41 0 011.93 3.18c-2.6.98-3.21-1.76-5.04-2.4zm43.69 48.51a18.5 18.5 0 00-5.69-.45c-18.08.1-36.16-.11-54.24.26-9.94.2-19.89.05-29.83.3-9.77.25-19.55.05-29.32 0-4.93 0-9.87.34-14.77.19-5.85-.17-11.7.31-17.55-.16a96.85 96.85 0 00-9.93.15c-9.77.21-19.54-.17-29.31.1-7.73.22-15.46-.07-23.19.19s-15.64.15-23.42.15c-5.34.05-10.67.27-16 .5-3.63.16-7.32-.35-11 0-1.35.13-2.85-.19-4.29-.17q-10.19.12-20.38.28c-4.31.07-8.61.16-13.24.25-.16 15.32-.37 30.46-.38 45.28a2 2 0 001.58.62l14.78-.2a17.39 17.39 0 012 .07 1 1 0 011 1c.07.78-.45 1.09-1.1 1.11-1.95.08-3.88.34-5.85.23a32.93 32.93 0 00-10.35.77c-.69 1-.12 1.86-.37 2.6-.56.24-1.1-.28-1.67.34a14.78 14.78 0 00-.14 3.62 22.08 22.08 0 01-.16 4.06c-.31 1.86.4 2.71 2.23 2.27a22.18 22.18 0 015.2-.24c14.71-.05 29.41.29 44.11-.2 9.94-.33 19.88-.15 29.82-.35 15.12-.3 30.24-.15 45.36-.4q18.35-.3 36.69-.3c17.59 0 35.17-.21 52.76-.32 21.25-.14 42.49 0 63.74.08 7.86 0 15.72.11 23.6-.24a5.68 5.68 0 00.35-2.73c0-2.21-.11-4.42-.16-6.63-.05-2.84-.4-3.17-3.3-3.12-1.53 0-3.06.09-4.58 0-1.17-.08-2-.62-1.37-2.16 2.89-.82 6 .19 8.9-.55.36-2 0-14.19-.39-15.78a4.92 4.92 0 00-2.49-.28h-7.39c-1.05 0-2-.13-2.48-1.51 1.73-2 4-.53 5.94-.88 2.14-.39 4.38.36 6.67-.37-.56-9.14-.18-18.2-.39-27.38zm-159-29.74c-.15.44.14.79.34 1.15 4.75 8.43 9.53 16.84 14.23 25.3a3.05 3.05 0 003.11 1.68q7.14-.15 14.27-.2c7.47-.06 14.95-.12 22.42-.12 9.77 0 19.53-.44 29.3-.35 8.83.08 17.65-.07 26.48-.14 6-.05 12-.19 18.06-.22h23.2a44.64 44.64 0 007.37-.52c-.19-9.37-.39-18.64-.58-27.71-.54-.27-.69-.4-.84-.4-6.11-.06-12.23-.34-18.34.14a1.4 1.4 0 00-1.13.44c-.87 1.08-1.83.69-2.69.06a3.63 3.63 0 00-4-.18 3.79 3.79 0 00.17 2.81c5.32 1.79 5.71 2.17 4.49 4.46-1.63.32-2.52-2.23-4.36-1.17a4.34 4.34 0 00-.29 2.25c0 1.78-.08 3.56-.17 5.34 0 .82-.35 1.58-1.3 1.6s-1.33-.69-1.48-1.48a13.5 13.5 0 01.07-3.3c.09-1.44.53-3-.51-4.41a34.17 34.17 0 01-5.07 3 2.89 2.89 0 01-3.43-.51 7.07 7.07 0 00-3.41-2.11v7c0 1-.31 1.76-1.43 1.62s-1.06-.95-1-1.76c0-.43.17-.84.2-1.26a30.14 30.14 0 00-.09-5.82 9.87 9.87 0 00-2.59 2.43 5.47 5.47 0 01-1.85 1.73c-1.18.53-1.94.24-2.21-1.42 2.17-1.14 3.18-3.53 5.12-5.06a2.61 2.61 0 00.86-3.7c-.94-.06-1.29.56-1.65 1.12a4.51 4.51 0 01-2.24 1.6c-1.13.48-1.95.12-2.23-1 .21-1.1 1.49-1.12 1.55-2.22a30.58 30.58 0 00-7.39.07 20.06 20.06 0 003.44 3.37c1 .85 1.51 1.81.33 3.15-2.16-.81-3.24-3.15-5.52-3.91 0 3.52 0 6.83-.06 10.14 0 .87.31 1.93-.82 2.46-1.13-.07-1.43-.81-1.4-1.75.06-2.46-.56-4.89-.19-7.37a10.13 10.13 0 00-.3-3.88c-.59-.07-.75.27-1 .49a18.29 18.29 0 00-3.72 4.49 1.16 1.16 0 01-1.77.38 1.17 1.17 0 01-.21-1.79c.39-.56.91-1 1.3-1.57 1-1.36 2.44-2.28 3.23-3.73-.22-.23-.34-.46-.45-.46q-46.47.38-92.95.78a1 1 0 00-.89.46zM202 238.84c1.41 3 3.34 5.5 4.16 8.58a19.18 19.18 0 001.47 3.51c1.38 2.73 2.9 5.39 4.23 8.14 2.89 6 6.05 11.78 9.11 17.65 2.39 4.59 5.23 9 7.33 13.68 4.27 9.6 9.7 18.6 14.7 27.89a2.84 2.84 0 002.85 1.65c3.57-.09 7.14 0 10.71 0 .8 0 1.6-.13 2.48-.2a73.62 73.62 0 01-5.24-10.52c-1.76-4.77-4.57-9.09-6.92-13.61-3.84-7.37-7.65-14.77-11.62-22.08-2.42-4.47-4.78-9-7.24-13.42-1.76-3.17-3.2-6.57-4.88-9.79-3.42-6.54-6.91-13.05-10.31-19.61-.84-1.61-1.8-3.16-2.74-4.81-1.35.78-1.42 2.12-2.11 3a3.59 3.59 0 00-.23 3.84c2.29 5.3 4.84 10.48 7.29 15.71s5.4 10.57 8.08 15.87q8.1 16 16.39 31.94a172.79 172.79 0 008.61 15.6c1.11 1.69 2 3.54 2.95 5.34.39.74.43 1.51-.5 1.93s-1.27-.16-1.7-.73a2.35 2.35 0 01-.22-.45c-2.55-5.09-5.07-10.18-7.64-15.26q-5.89-11.68-11.85-23.35c-4.39-8.53-8.83-17-13.24-25.55-3.08-5.95-6.14-11.92-9.23-17.87-.4-.77-.67-1.7-1.67-2.11zM332.22 319a1.81 1.81 0 00-.36-1.46c-2.22-4-4.43-8-6.68-12q-6.53-11.52-13.09-23c-4.32-7.59-8.67-15.17-13-22.76-5-8.7-9.69-17.53-15-26a56.25 56.25 0 01-3.49-5.91c-1-2.15-2.21-4.2-3.39-6.26q-4-7.07-8.13-14.1c-2.31-4-4.66-7.89-7-11.83-2.9-4.9-5.82-9.78-8.7-14.68-2.45-4.17-4.7-8.46-7.42-12.47-.46-.68-.75-1.55-1.83-1.8a10.4 10.4 0 00-2.67 3.64c1.22.78 1.46 2.11 2.13 3.17 3.59 5.75 6.84 11.69 10 17.7 4.32 8.36 9.41 16.29 13.73 24.65 1.95 3.76 4.39 7.28 6.32 11.05 3.8 7.41 8.24 14.45 12.21 21.75 3.43 6.33 7.13 12.52 10.71 18.78 3.28 5.74 6.68 11.42 9.82 17.25s6.55 11.5 9.93 17.19c3.16 5.31 6.1 10.76 9.48 15.94.49.75.9 1.47 1.91 1.39 1.45-.19 2.99.1 4.52-.24zm-16.76 0c-1.11-3.66-77-138.54-79.06-140.13l-2.75 4.86c3.62 6.38 6.95 12.86 10.64 19.15 2.28 3.87 4.33 7.89 6.54 11.78 4 7.07 7.79 14.3 12 21.24 1.55 2.53 2.61 5.33 4 7.91 4.85 9 10 17.76 15 26.65 5.47 9.78 10.85 19.61 16.35 29.37 3.5 6.21 7.14 12.34 10.7 18.52.37.64.85 1.16 1.58 1.08 1.66-.23 3.36.06 5-.43zm8 0a4.38 4.38 0 00-1-2.68c-1.7-2.93-3.5-5.8-5.15-8.75-5.11-9.11-10.17-18.25-15.26-27.37-1.9-3.41-3.85-6.8-5.77-10.2l-12.39-22-8.89-15.76q-4.65-8.2-9.29-16.4-4.71-8.43-9.44-16.84l-14-24.86a4.66 4.66 0 00-1.88-2c-.7 1-1.36 1.85-2 2.77a2.5 2.5 0 00-.12 2.66c2.57 4.87 5.37 9.61 7.82 14.55 1.24 2.51 2.9 4.8 4.28 7.24 3.66 6.51 7.12 13.12 10.93 19.55 4.72 8 9.15 16.07 13.53 24.21 3.78 7 7.79 13.93 11.67 20.89 4.79 8.6 9.58 17.2 14.46 25.75 5.59 9.79 10.94 19.72 17 29.32a13.58 13.58 0 005.53-.15zm-35.29.51c-1-3.23-62.67-116-64.75-118-1.37 1.54-2 3.49-3.12 5.17a1.23 1.23 0 00.11 1.22c2.08 4.17 4 8.42 6.28 12.5 5.37 9.73 10.66 19.5 16 29.23s10.31 19.31 15.48 28.95c7.41 13.83 14.93 27.58 23.25 41zM229.94 190.1c2.6 6 5.74 11.73 8.84 17.45 2.71 5 5.32 10 8.05 15 4.19 7.67 8.34 15.36 12.6 23 2.39 4.29 5.1 8.43 7.3 12.78 2.67 5.31 5.61 10.45 8.38 15.69 3.72 7.06 7.67 14 11.53 21 4.22 7.65 8.34 15.35 12.91 22.8a3 3 0 002.38 1.71c1.57 0 3.15 0 4.91-.07a14.37 14.37 0 00-1.37-3.36q-5.21-9.31-10.36-18.68c-3.47-6.31-7-12.62-10.4-19-6.09-11.26-12.47-22.42-18.71-33.57-5.17-9.25-10.3-18.53-15.49-27.77q-8.22-14.64-16.52-29.24c-.4-.71-.71-1.55-1.65-1.76-1.2 1.09-1.55 2.64-2.4 4.02zm48.5 129.31c-.94-2.58-57.89-107.66-59.94-109.2a29.3 29.3 0 00-3.29 5.36c1.78 4.37 4.29 8.33 6.44 12.47.71 1.38.88 3 1.75 4.19a63.44 63.44 0 015.71 10.46c2.3 4.9 5 9.63 7.68 14.33a111.63 111.63 0 016 10.66c1.74 4 3.9 7.73 5.91 11.55 4.06 7.74 8.42 15.32 12.64 23 2.9 5.26 5.53 10.66 8.88 15.66a2.69 2.69 0 002.16 1.55 34.52 34.52 0 006.06-.03zm18.86 0c-1.07-2.78-2.65-4.9-3.91-7.19-5.33-9.76-10.75-19.46-16.13-29.19-2.7-4.9-5.21-9.92-8.08-14.71-3.58-6-6.72-12.16-10.31-18.13-4.11-6.82-7.69-14-11.44-21-1.67-3.15-3.69-6.1-5.29-9.27q-4.6-9.09-9.83-17.82c-.47-.78-1.65-1.42-1.66-2.13 0-1.88-1.22-2.64-2.49-3.29-.12-1 .45-1.89-.53-2.48-.55.21-.64.78-.95 1.16-1.8 2.19-1.85 4.15-.33 6.81 4.75 8.32 9.12 16.86 13.59 25.34 3.37 6.39 7 12.64 10.46 18.95 6.88 12.49 13.69 25 20.54 37.54q6.9 12.62 13.87 25.19c1.93 3.48 4 6.87 6 10.28a27 27 0 006.49-.09zm-86.2-96a25.6 25.6 0 012 3.42 60 60 0 002.71 5.74c1.62 2.79 3 5.7 4.47 8.58 2.08 4.08 4.09 8.2 6.22 12.26 3.46 6.61 7 13.19 10.48 19.8 3.63 6.91 7.15 13.89 10.84 20.77 3.53 6.58 7.3 13 10.82 19.63 1 1.95 2.53 3.79 2.38 6.07h7.41c-1.13-1.82-1.36-3.87-4-4.06 1-1.57.34-2.75-.34-4-1.85-3.33-3.54-6.75-5.29-10.14q-4.87-9.51-10-18.92-10.66-19.81-21.29-39.65-6.31-11.76-12.66-23.51c-.23-.43-.39-1-1.27-1-.79 1.53-1.99 2.96-2.48 4.96zm-13.62 23.35c5.41 13 11.9 25 18 37.14s12.28 24.53 19.4 36.37l6.62-.37c-6.89-13.38-13.56-26.42-20.31-39.42s-13.33-26-20.4-38.92c-1.65 1.79-2.29 3.78-3.31 5.15zm-1.75 3.3c-.9 1.57-1.77 3-2.57 4.49-.43.81.17 1.45.5 2.12 1.09 2.21 2.21 4.39 3.23 6.63 1.76 3.84 3.31 7.79 5.2 11.57q5.32 10.71 10.95 21.28c4.12 7.76 8.62 15.31 12.48 23.21a1.33 1.33 0 001.19.84h5.77c-3.74-7-7-13.65-10.33-20.33s-6.81-13.1-10.1-19.7c-2.91-5.84-6-11.57-9-17.41-2.05-4.28-3.81-8.83-7.32-12.76zm27.49 70.2c-.58-1.32-1-2.41-1.53-3.46-2.82-5.69-5.63-11.39-8.51-17.05q-6-11.91-12.19-23.78c-.69-1.34-1.83-2.5-2.33-3.89-1.57-4.33-4-8.2-5.94-12.34-.27-.59-.57-1.29-1.61-1.15-1.1 1.4-1.56 3.27-2.55 4.84a1.86 1.86 0 00.12 1.72c1.42 3.26 2.59 6.66 4.31 9.76 2.76 5 5.08 10.16 7.61 15.23 3.41 6.84 7.4 13.35 10.7 20.23 1.32 2.75 3.77 4.89 4.22 8.1a1.86 1.86 0 00.82 1.51 3.69 3.69 0 001.74.25c1.61-.03 3.21-.03 5.14-.02zm-39.38-48.77c7.38 16.73 14.83 33.13 24 48.75a24.65 24.65 0 005.81-.21c-8.63-18.06-17.7-35.66-26.7-53.72a39.6 39.6 0 00-3.11 5.13zM205.41 320l-22.74-46.08c-1 1.49-1.66 2.65-2.48 3.69a3.47 3.47 0 00-.42 3.76c1 2.81 2.84 5.22 3.81 8a13.75 13.75 0 002.47 4.39 27.66 27.66 0 012.69 4.29c2.83 4.93 4.51 10.4 7.42 15.32 1.33 2.24 3 4.27 4 6.78a29.66 29.66 0 005.25-.15zm-27.62-36.73l-.55.1v8.07a4 4 0 00.23 1.24c1.11 3.39 2.54 6.66 3.85 10 1.73 4.32 4 8.44 5.95 12.66 2.21 4.72 3 5.21 8.13 5a2 2 0 001.52-.4 2.66 2.66 0 00-1.44-2.2 8 8 0 01-2.75-3.57c-.75-1.61-1.59-3.18-2.35-4.78-3.44-7.19-6.76-14.43-10.08-21.68a39.53 39.53 0 00-2.51-4.45zm-.15 15.73l-.53.12v11.3a1.43 1.43 0 00.3.94c1 1 1 2.28 1.49 3.46a30.13 30.13 0 001.63 4.26c.4.71.88 1.42 1.7 1.31 1.72-.21 3.5 0 5.49-.55-3.43-7.06-6.49-14.07-10.08-20.84zm265.09-1.29a18.54 18.54 0 014.73-4.1 2.26 2.26 0 00.84-3.31 44 44 0 00-6.08-.1c.12 1 1.36 2 .09 2.84-1.05.67-1.91-.17-2.72-.78s-1.33-1.06-2-1.56a1.42 1.42 0 00-1.55-.35c-.24 1.25-.69 2.69.8 3.51 1.99 1.14 3.65 2.76 5.89 3.87z" transform="translate(-145.11 -55.18)" id="path22"/>
    <path d="M478.78 487.77c-1.34 1.85-1.32 3.66-.64 5.79 1.06-1.36-.21-3.19 1.32-4.07.92-.52 1.77-1.37 3.14-.95.33 1.79.74 3.59 1 5.41.14 1-.31 2-1.47 2-1 0-1.66.84-2.27.82-1.18-.13-1.11-1.05-1.61-1.45-.71.28-.39 1.35-1 1.47-1.13.3-1.4-.81-2.21-.9-1 0-1.61.75-2.32 1.29-.76 0-1.3-.45-1.94-.65a2.38 2.38 0 01-1.89-2.87 6.71 6.71 0 00-.29-2.51c-.23-.92-.33-1.88.85-2.34 1 .14 1.13.9 1.16 1.69s0 1.53.08 2.29A1.25 1.25 0 00472 494c.73 0 .94-.62 1-1.24s.14-1.36.29-2a1.12 1.12 0 01.83-.88c1.07.14.88 1.36 1.79 2a4.38 4.38 0 00.12-2.63c-.87-1.3-2.65.29-3.14-1.4 1.58-1.53 2.57-1.56 5.89-.08z" transform="translate(-145.11 -55.18)" id="path24"/>
    <path class="cls-1" d="M297.23 251.82c-1.44-2.55-2.81-5-4.16-7.4-1.61-2.89-3.25-5.76-4.83-8.66-1.1-2-1.93-4.3-3.65-6a5.56 5.56 0 01-.92-1.52c-3-6.13-6.95-11.75-10.28-17.71s-6.8-11.76-10.2-17.65c-3.89-6.77-7.71-13.58-11.68-20.31-1.69-2.85-3.36-5.7-5-8.58a3.55 3.55 0 00-2.47-2.2 6.8 6.8 0 00-2.59 2.92c-3 6-6.35 11.79-9.76 17.54-3.59 6.06-6.84 12.32-10.54 18.32-3.47 5.62-6.61 11.44-10 17.1-1.19 2-2.31 4.1-3.32 6.23-.63 1.33-.92 3-2.59 3.62a.62.62 0 00-.33.36c-1.8 5-4.89 9.42-7.45 14.06-2.38 4.31-4.87 8.56-7.29 12.85-2.83 5-5.63 10.07-8.47 15.09a60.77 60.77 0 01-4 6.18c-.84-9.12-.23-18.21-.22-27.27 0-9.24-.14-18.49.13-27.74s0-18.31 0-27.47 0-18.53.07-27.79l.09-27.54c0-9.26.14-18.52.08-27.78s0-18.31.13-27.4c1.71-1 3.38-.61 4.94-.63 10-.13 20-.29 30.05-.13 5.52.09 11.06.35 16.56.12 6.71-.28 13.41.12 20.11 0 4.82-.08 9.68.22 14.5.09 6.88-.19 13.76 0 20.64 0 11.55-.06 23.11 0 34.66 0 7.91 0 15.82.12 23.72-.07 11.89-.27 23.79-.14 35.69-.25h13q20.4-.15 40.79-.31c8.32-.06 16.64 0 25-.08h16a9.42 9.42 0 011 .09c.9.85.78 1.92.77 2.9-.18 15.47.41 30.93.46 46.39 0 12.66.51 25.32.72 38 .14 8.66.14 17.32.26 26 .12 9.42.32 18.85.48 28.27.14 8.57.31 17.13.38 25.69 0 1.26.59 2.47.23 4a9 9 0 01-2.65-3.44c-2.45-4.27-4.86-8.56-7.3-12.84L461.22 225q-5.81-10.17-11.63-20.34l-13.26-23.2c-5-8.77-10.06-17.52-15-26.32-5.64-10-11.07-20.08-16.86-30-3.61-6.15-6.84-12.51-10.58-18.59-1.28-2.09-2.35-4.32-3.52-6.48a10.82 10.82 0 00-1-1.74c-1.28-1.46-2.57-1.19-3.06.69-.74 2.85-2.46 5.21-3.88 7.69-5.11 8.89-10.4 17.68-15.54 26.56-5.81 10-11.74 20-17.53 30.11-3.09 5.36-6.28 10.68-9.37 16-3.52 6.09-7.1 12.16-10.69 18.21-4.06 6.86-8 13.81-12 20.69-3.3 5.64-6.68 11.24-10 16.87-3.12 5.34-6.19 10.71-9.29 16.06-.11.2-.29.26-.78.61zm45.69-121.5c.2-2.78.28-5.62-.87-8.08a36.7 36.7 0 00-9.89-12.7c-3.57-3-8.07-3.72-12.47-4.73-6-1.36-11.28.5-16.33 3.15a18.33 18.33 0 00-6.47 6 67.63 67.63 0 00-3.89 6 15.37 15.37 0 00-1.87 5.72 49.5 49.5 0 00.4 10.89 19.09 19.09 0 004.9 11.22 25 25 0 003.89 2.85c4.81 3.59 10.49 4 16.18 4.39a1.78 1.78 0 00.51-.06c4.9-1.22 9.92-2 14.36-4.71a41.89 41.89 0 007.15-5.25 10.35 10.35 0 002.87-4.45c1-3.38 2.02-6.72 1.53-10.24zm-79.05-24.85a2.14 2.14 0 00-1.7-.79 12.88 12.88 0 00-6.47 1 3.65 3.65 0 01-3.78-.36c-2.16-1.38-4.53-2.3-7.23-1.7-.7.16-1.38.25-1.46 1.12a1.66 1.66 0 001.15 1.77 5.1 5.1 0 002.26.21c2.19 0 4.22.22 5.59 2.29a1.27 1.27 0 002.3.09 5.31 5.31 0 012.53-1.56 9.38 9.38 0 016.07-.49 2.06 2.06 0 00.74-1.58zm5.85-4.52c1.18-2.5 3.65-3.3 6.22-4a12.12 12.12 0 001.47-.36c.91-.33 1.1-.94.47-2-2.15.31-4.47 0-6.42 1.52a3.94 3.94 0 01-5.11.15 5.36 5.36 0 00-1.38-.62 8.45 8.45 0 00-5.72-.07c-.95.33-1.93.8-1.49 2.12.93.73 1.86.22 2.76.22 2.89 0 5.79 0 7.86 2.59a1.26 1.26 0 001.34.5zm20.17 2.21c1.62-1.81 3.41-2.78 5.73-2.45a4.85 4.85 0 001.52 0c.81-.11 1.41-.51 1.36-1.5-.19-.17-.36-.45-.56-.47-2.51-.31-5-.64-7.48.45a3 3 0 01-2.45.32c-1.94-.82-3.83-.28-5.75 0a4.75 4.75 0 00-3.47 2.77 4 4 0 003.77-.28 5.52 5.52 0 016 .42 11.27 11.27 0 001.33.74z" transform="translate(-145.11 -55.18)" id="path26"/>
    <path class="cls-1" d="M435.56 272.76c1.83.64 2.4 3.38 5 2.39a3.41 3.41 0 00-1.96-3.15c-1.94-1.25-3.48-2.79-2.75-5.4.61-.75 1.8.1 2.37-1.14-.37-1.59-1.75-2.54-3.1-3.49a1 1 0 00-1.4.2c-.82 1.52-2.6 2.47-2.73 4.24.5 1.07 1.6.39 2.1 1.14a2.47 2.47 0 01-.84 2.91 17.35 17.35 0 00-2.62 3.12c-.63.95-.32 1.58.68 1.95 1.07-.28 1.54-1.31 2.66-1.93.27 2.37.69 4.49-1.56 6.19-1.05.8-1.76 2.05-2.86 2.88s-.94 1.64.23 2.35c1.51-.52 2.4-1.93 3.82-2.48 1.19 2.22 1.15 3.68-.06 4.73a2.73 2.73 0 01-1.83.79h-11.13c-.61-2.16-.17-4.24-.46-6.65 1.1.73 1.44 1.72 2.29 2.12.55.27 1.06.58 1.62 0a1.06 1.06 0 000-1.59 36.18 36.18 0 00-2.64-2.76 3.64 3.64 0 01-1.25-4.08c.49-.65 1.56-.16 2.11-1.37a9.87 9.87 0 00-3.65-4.92c-1.49.29-1.25 1.75-2.15 2.3a28.84 28.84 0 00-2.5 1.76 1.07 1.07 0 00-.44 1.34c.28.64.86.73 1.49.71.83 0 1.32-.75 2.19-.92a4.77 4.77 0 01-1 5.34 10.2 10.2 0 00-2.61 4.78c2.87.88 2.24-2.21 3.55-2.9.78 1.51.88 4.1.27 6.72-.5.49-1.11.25-1.69.22-6-.3-11.89.18-17.84.15-18.87-.09-37.74-.15-56.6 0-6.71.06-13.4.08-20.09-.11a3.68 3.68 0 01-3.6-2.12c-3.46-6.14-6.82-12.34-10.38-18.43a94.6 94.6 0 01-6.12-11.13 13.86 13.86 0 00-1.4-2.12c3.19-4.22 5.34-9 8-13.49 2.28-3.88 4.39-7.85 6.63-11.74 4.54-7.86 9.13-15.68 13.67-23.54 3.95-6.83 7.75-13.74 11.8-20.52q5.75-9.6 11.33-19.31c4.56-7.95 9.12-15.9 13.77-23.8 3.77-6.42 7.56-12.85 11.53-19.16 2.76-4.37 5.26-8.91 7.91-13.34 1.44-2.4 3-4.74 4.51-7.19 1.09.54 1.32 1.63 1.79 2.46q8.07 14 16 28.08c3.15 5.53 6.27 11.07 9.43 16.59 5.14 9 10.33 17.92 15.45 26.91s10 17.74 15 26.61c3.63 6.43 7.12 12.94 10.94 19.26 3.2 5.3 6.16 10.75 9.27 16.1s6.36 10.44 8.91 16c.64 1.41 1.65 1.81 3.24 1.92.17 10.21.34 20.35.52 30.56a15.22 15.22 0 01-5.15.7c-5.26.15-10.53.13-15.8.18a6.84 6.84 0 01-3.42-.89c-1.47-.84-2.81-1.94-2.54-4 .14-1.07-.63-2.14-.18-3.19.39-.5.83-.15 1.22-.19 1.5-.16 1.92-.83 1.3-2.23a10.16 10.16 0 00-3.14-3.68c-2.31.69-2.88 2.75-3.74 4.52a1.05 1.05 0 00.58 1.29 1.89 1.89 0 01.9 1.41c.59 3 .62 3-2 4.67a10 10 0 00-1.45 1c-1.95 1.87-4.36 1.7-6.72 1.46-1.86-.19-2.6-1.23-2.59-3.1v-3.05c0-.12.19-.24.44-.55.94 1 1.86 1.92 2.8 2.86a9.54 9.54 0 001.49 1.36 1.24 1.24 0 001.65-.12 1.18 1.18 0 000-1.64c-1.06-1.2-2.2-2.34-3.32-3.5a6.34 6.34 0 00-.95-.84c-2.1-1.56-2.76-3.68-2.2-6.51zm-34.8-72.35c1.67.86 3.35.35 4.83-.37 2.41-1.18 4.43-1.49 6.25 1a1.6 1.6 0 002.8 0c1.92-2.37 4.11-3.14 6.83-1.52 1.1-1.89.63-3.19-1.21-3.29-2.45-.15-4.94-.15-6.75 2-2.42-1.15-4.67-2.17-7.35-2.12s-4.94 1.53-5.4 4.3zm19.24 5.48c1 1.45 1.93.89 2.86.54 2.38-.9 4.55-1 6.54 1a2 2 0 003.39-.45c.9-2 2.62-2.22 4.36-2.49a17.78 17.78 0 012.53 0 1.47 1.47 0 001.65-1.46c-2.63-1.31-6.79-.68-10.25 1.51-3.87-1.05-7.67-1.72-11.08 1.35z" transform="translate(-145.11 -55.18)" id="path28"/>
    <path class="cls-1" d="M479.25 321.27c.21 9.18-.17 18.24.37 27.36-2.29.73-4.53 0-6.67.37-1.94.35-4.21-1.12-5.94.88.44 1.38 1.43 1.5 2.48 1.51h7.39a4.92 4.92 0 012.49.28c.42 1.59.75 13.76.39 15.78-2.9.74-6-.27-8.9.55-.59 1.54.2 2.08 1.37 2.16 1.52.09 3 0 4.58 0 2.9-.05 3.25.28 3.3 3.12.05 2.21.14 4.42.16 6.63a5.68 5.68 0 01-.35 2.73c-7.88.35-15.74.26-23.6.24-21.25 0-42.49-.22-63.74-.08-17.59.11-35.17.31-52.76.32q-18.35 0-36.69.3c-15.12.25-30.24.1-45.36.4-9.94.2-19.88 0-29.82.35-14.7.49-29.4.15-44.11.2a22.18 22.18 0 00-5.2.24c-1.83.44-2.54-.41-2.23-2.27a22.08 22.08 0 00.16-4.06 14.78 14.78 0 01.14-3.62c.57-.62 1.11-.1 1.67-.34.25-.74-.32-1.64.37-2.6a32.93 32.93 0 0110.35-.72c2 .11 3.9-.15 5.85-.23.65 0 1.17-.33 1.1-1.11a1 1 0 00-1-1 17.39 17.39 0 00-2-.07l-14.78.2a2 2 0 01-1.58-.62c0-14.82.22-30 .38-45.28 4.63-.09 8.93-.18 13.24-.25q10.19-.16 20.38-.28c1.44 0 2.94.3 4.29.17 3.7-.36 7.39.15 11 0 5.34-.23 10.67-.45 16-.5 7.82-.07 15.65.14 23.46-.14s15.46 0 23.19-.19c9.77-.27 19.54.11 29.31-.1a96.85 96.85 0 019.93-.15c5.85.47 11.7 0 17.55.16 4.9.15 9.84-.19 14.77-.19 9.77 0 19.55.21 29.32 0 9.94-.25 19.89-.1 29.83-.3 18.08-.37 36.16-.16 54.24-.26a18.5 18.5 0 015.67.41zM281.09 351a4.19 4.19 0 002.21.33h14c13.58-.07 27.15-.25 40.73-.25 21.16 0 42.31.13 63.47.2h1.53c.53 0 1.17-.3 1.2-1a1.27 1.27 0 00-1.11-1.46 9.76 9.76 0 00-1.53 0c-3.64.06-7.28.14-10.93.18-23.78.24-47.56-.19-71.34.2-5.26.09-10.53 0-15.8 0-5.86 0-11.72 0-17.59-.05-1.18 0-2.37-.2-3.54-.11s-1.91.52-1.3 1.96zm-71.84 19.76a1.87 1.87 0 001.34.46A72.48 72.48 0 00218 371c8.75-.19 17.49-.32 26.24-.45h11.2c9.85-.05 19.7 0 29.55-.2 7.56-.16 15.12 0 22.68 0 1 0 2.59.24 2.59-1.26s-1.49-1-2.43-1q-16.43 0-32.85.11c-7.81 0-15.62.13-23.42.16-11.55 0-23.1 0-34.64.43-2.12.09-4.23.33-6.35.51-.91-.02-1.5.33-1.32 1.43zM457.59 369c-.56-1.31-1.59-1.34-2.63-1.33-1.35 0-2.71.09-4.07.09-8.16 0-16.31-.24-24.47-.06-5.25.12-10.51.25-15.77 0-4.48-.19-9-.16-13.46 0-2.21.07-4.41 0-6.61 0h-17.32a4.07 4.07 0 00-.5 0c-.55.06-1 .28-1.09.87a1.14 1.14 0 001 1.3 13.3 13.3 0 002.28.12q26.38 0 52.78.08c9.09 0 18.19.12 27.28.18.99.02 2.06.08 2.58-1.25zm-67.5-36.32c-.11 1.91 0 2 1.78 2.07 10.45.21 20.89-.31 31.34 0 7 .18 13.9-.08 20.85-.08 8.33 0 16.66.07 25 .07 1 0 2.07.32 2.86-.73-.08-1.49-1.17-1.47-2.18-1.33a37.61 37.61 0 01-6.87.25c-9.16-.44-18.31-.11-27.47-.09-11.05 0-22.09 0-33.14-.07zm-19.85 1.13c-.41-1.23-1.44-1-2.46-1.06-4.34-.07-8.67.19-13 .23-9.1.09-18.19 0-27.29 0h-32.82a8.8 8.8 0 01-3.76-.54c-.65-.31-1.41-.41-1.7.45a1.47 1.47 0 001.08 2 6.78 6.78 0 002 .11c13.17-.1 26.33-.25 39.5-.29 12.07-.05 24.14 0 36.2 0 .84.01 1.77.21 2.25-.93zM196 338.16a2.57 2.57 0 013-2.3c2.46 0 4.92-.23 7.37-.23q15.79 0 31.57.07h1c.65-.06 1.15-.34 1.2-1.07a1.22 1.22 0 00-1.16-1.4 5.19 5.19 0 00-1.76 0 13.42 13.42 0 01-3 .23c-7.21 0-14.42.11-21.64.14-4.74 0-9.49.11-14.23-.07-4.08-.14-4.35.17-2.35 4.63zm-11.58 15.41c.43-1.14 1-1.79 2.23-1.8 2.63 0 5.26-.25 7.89-.26 10.61-.07 21.23-.16 31.85.06a5.84 5.84 0 001.5-.16 1 1 0 00.77-.92 1.14 1.14 0 00-.68-1.24 2.58 2.58 0 00-2-.16 11.84 11.84 0 01-3 .27c-5.17.07-10.35 0-15.52.15-7.22.14-14.44 0-21.65 0-.92 0-1.89-.26-2.6.69-.13 1.16.44 2.11 1.21 3.37zm252.07-2.3A118.67 118.67 0 00450 351c.86-.1 1.88 0 1.81-1.24s-1.15-.95-2-.94c-3.14 0-6.28.11-9.42.13h-14.25c-.75 0-1.45.11-1.56.93-.14 1 .7 1.22 1.48 1.33a15 15 0 001.78.07zm-91.85 16.36h-10.69c-.78 0-1.63 0-1.62 1.13s.82 1.15 1.61 1.16h20.32a15.35 15.35 0 002-.11 1 1 0 00.92-1 1 1 0 00-.88-1.06 10.45 10.45 0 00-1.77-.1zm-76.25-16.77c.37-1.21-.2-1.73-1.19-1.82a18.69 18.69 0 00-2.8 0 114.44 114.44 0 01-15.27.11 4.17 4.17 0 00-1.75.26 1.13 1.13 0 00-.17 2 2 2 0 001.45.31c5-.36 10-.26 15-.25a13 13 0 004.73-.61zm5.4-16.82c-.33-1-1.16-.84-1.9-.88-8.22-.41-16 0-17.53.9-.05 1.1.71 1.2 1.52 1.2q8.13 0 16.27-.06c.79 0 1.55-.14 1.64-1.2z" transform="translate(-145.11 -55.18)" id="path30"/>
    <path class="cls-1" d="M320.23 291.53a1 1 0 01.89-.43q46.47-.41 92.95-.78c.11 0 .23.23.45.46-.79 1.45-2.27 2.37-3.23 3.73-.39.55-.91 1-1.3 1.57a1.17 1.17 0 00.21 1.79 1.16 1.16 0 001.77-.38 18.29 18.29 0 013.72-4.49c.25-.22.41-.56 1-.49a10.13 10.13 0 01.3 3.88c-.37 2.48.25 4.91.19 7.37 0 .94.27 1.68 1.4 1.75 1.13-.53.8-1.59.82-2.46.06-3.31.05-6.62.06-10.14 2.28.76 3.36 3.1 5.52 3.91 1.18-1.34.63-2.3-.33-3.15a20.06 20.06 0 01-3.44-3.37 30.58 30.58 0 017.39-.07c-.06 1.1-1.34 1.12-1.55 2.22.28 1.08 1.1 1.44 2.23 1a4.51 4.51 0 002.24-1.6c.36-.56.71-1.18 1.65-1.12a2.61 2.61 0 01-.86 3.7c-1.94 1.53-2.95 3.92-5.12 5.06.27 1.66 1 1.95 2.21 1.42a5.47 5.47 0 001.85-1.73 9.87 9.87 0 012.59-2.43 30.14 30.14 0 01.09 5.82c0 .42-.16.83-.2 1.26-.07.81 0 1.65 1 1.76s1.43-.63 1.43-1.62v-7a7.07 7.07 0 013.41 2.11 2.89 2.89 0 003.43.51 34.17 34.17 0 005.07-3c1 1.44.6 3 .51 4.41a13.5 13.5 0 00-.07 3.3c.15.79.57 1.5 1.48 1.48s1.26-.78 1.3-1.6c.09-1.78.13-3.56.17-5.34a4.34 4.34 0 01.29-2.25c1.84-1.06 2.73 1.49 4.36 1.17 1.22-2.29.83-2.67-4.49-4.46a3.79 3.79 0 01-.17-2.81 3.63 3.63 0 014 .18c.86.63 1.82 1 2.69-.06a1.4 1.4 0 011.13-.44c6.11-.48 12.23-.2 18.34-.14.15 0 .3.13.84.4.19 9.07.39 18.34.58 27.71a44.64 44.64 0 01-7.37.52c-7.73.05-15.47 0-23.2 0-6 0-12 .17-18.06.22-8.83.07-17.65.22-26.48.14-9.77-.09-19.53.34-29.3.35-7.47 0-15 .06-22.42.12q-7.14.06-14.27.2a3.05 3.05 0 01-3.13-1.69c-4.7-8.46-9.48-16.87-14.23-25.3-.2-.38-.49-.7-.34-1.17z" transform="translate(-145.11 -55.18)" id="path32"/>
    <path class="cls-1" d="M202 238.84l3.06-5c1 .41 1.27 1.34 1.67 2.11 3.09 5.95 6.15 11.92 9.23 17.87 4.41 8.52 8.85 17 13.24 25.55q6 11.65 11.85 23.35c2.57 5.08 5.09 10.17 7.64 15.26a2.35 2.35 0 00.22.45c.43.57.91 1.08 1.7.73s.89-1.19.5-1.93c-.94-1.8-1.84-3.65-2.95-5.34a172.79 172.79 0 01-8.61-15.6q-8.28-15.91-16.39-31.94c-2.68-5.3-5.56-10.5-8.08-15.87s-5-10.41-7.29-15.71a3.59 3.59 0 01.23-3.84c.69-.92.76-2.26 2.11-3 .94 1.65 1.9 3.2 2.74 4.81 3.4 6.56 6.89 13.07 10.31 19.61 1.68 3.22 3.12 6.62 4.88 9.79 2.46 4.44 4.82 9 7.24 13.42 4 7.31 7.78 14.71 11.62 22.08 2.35 4.52 5.16 8.84 6.92 13.61a73.62 73.62 0 005.16 10.47c-.88.07-1.68.2-2.48.2-3.57 0-7.14-.07-10.71 0a2.84 2.84 0 01-2.85-1.65C238 309 232.57 300 228.26 290.4c-2.1-4.7-4.94-9.09-7.33-13.68-3.06-5.87-6.22-11.69-9.11-17.65-1.33-2.75-2.85-5.41-4.23-8.14a19.18 19.18 0 01-1.47-3.51c-.82-3.08-2.75-5.59-4.12-8.58z" transform="translate(-145.11 -55.18)" id="path34"/>
    <path class="cls-1" d="M332.22 319c-1.53.39-3.07.1-4.58.21-1 .08-1.42-.64-1.91-1.39-3.38-5.18-6.32-10.63-9.48-15.94-3.38-5.69-6.79-11.36-9.93-17.19s-6.54-11.51-9.82-17.25c-3.58-6.26-7.28-12.45-10.71-18.78-4-7.3-8.41-14.34-12.21-21.75-1.93-3.77-4.37-7.29-6.32-11.05-4.32-8.36-9.41-16.29-13.73-24.65-3.12-6-6.37-11.95-10-17.7-.67-1.06-.91-2.39-2.13-3.17a10.4 10.4 0 012.67-3.64c1.08.25 1.37 1.12 1.83 1.8 2.72 4 5 8.3 7.42 12.47 2.88 4.9 5.8 9.78 8.7 14.68 2.34 3.94 4.69 7.87 7 11.83q4.1 7 8.13 14.1c1.18 2.06 2.39 4.11 3.39 6.26a56.25 56.25 0 003.49 5.91c5.34 8.48 10.07 17.31 15 26 4.32 7.59 8.67 15.17 13 22.76s8.74 15.34 13.09 23c2.25 4 4.46 8 6.68 12a1.81 1.81 0 01.42 1.49z" transform="translate(-145.11 -55.18)" id="path36"/>
    <path class="cls-1" d="M315.46 319c-1.64.53-3.34.24-5 .43-.73.08-1.21-.44-1.58-1.08-3.56-6.18-7.2-12.31-10.7-18.52-5.5-9.76-10.88-19.59-16.35-29.37-5-8.89-10.11-17.69-15-26.65-1.4-2.58-2.46-5.38-4-7.91-4.24-6.94-8-14.17-12-21.24-2.21-3.89-4.26-7.91-6.54-11.78-3.69-6.29-7-12.77-10.64-19.15l2.75-4.86c2.01 1.55 77.95 136.43 79.06 140.13z" transform="translate(-145.11 -55.18)" id="path38"/>
    <path class="cls-1" d="M323.49 318.93a13.58 13.58 0 01-5.5.09c-6-9.6-11.39-19.53-17-29.32-4.88-8.55-9.67-17.15-14.46-25.75-3.88-7-7.89-13.86-11.67-20.89-4.38-8.14-8.81-16.26-13.53-24.21-3.81-6.43-7.27-13-10.93-19.55-1.38-2.44-3-4.73-4.28-7.24-2.45-4.94-5.25-9.68-7.82-14.55a2.5 2.5 0 01.12-2.66c.6-.92 1.26-1.79 2-2.77a4.66 4.66 0 011.88 2l14 24.86 9.48 16.86q4.62 8.21 9.29 16.4l8.9 15.73 12.39 22c1.92 3.4 3.87 6.79 5.77 10.2 5.09 9.12 10.15 18.26 15.26 27.37 1.65 2.95 3.45 5.82 5.15 8.75a4.38 4.38 0 01.95 2.68z" transform="translate(-145.11 -55.18)" id="path40"/>
    <path class="cls-1" d="M288.2 319.44h-6.73c-8.32-13.37-15.84-27.12-23.25-41-5.17-9.64-10.2-19.36-15.48-28.95s-10.65-19.5-16-29.23c-2.26-4.08-4.2-8.33-6.28-12.5a1.23 1.23 0 01-.11-1.22c1.09-1.68 1.75-3.63 3.12-5.17 2.06 2.11 63.72 114.84 64.73 118.07z" transform="translate(-145.11 -55.18)" id="path42"/>
    <path class="cls-1" d="M229.94 190.1c.85-1.38 1.2-2.93 2.4-4 .94.21 1.25 1 1.65 1.76q8.28 14.61 16.52 29.24c5.19 9.24 10.32 18.52 15.49 27.77 6.24 11.19 12.62 22.31 18.71 33.58 3.42 6.34 6.93 12.65 10.4 19s6.89 12.47 10.36 18.68a14.37 14.37 0 011.37 3.36c-1.76 0-3.34.11-4.91.07a3 3 0 01-2.38-1.71c-4.57-7.45-8.69-15.15-12.91-22.8-3.86-7-7.81-13.92-11.53-21-2.77-5.24-5.71-10.38-8.38-15.69-2.2-4.35-4.91-8.49-7.3-12.78-4.26-7.64-8.41-15.33-12.6-23-2.73-5-5.34-10-8.05-15-3.1-5.75-6.24-11.49-8.84-17.48z" transform="translate(-145.11 -55.18)" id="path44"/>
    <path class="cls-1" d="M278.44 319.41a34.52 34.52 0 01-6.1 0 2.69 2.69 0 01-2.16-1.55c-3.35-5-6-10.4-8.88-15.66-4.22-7.65-8.58-15.23-12.64-23-2-3.82-4.17-7.56-5.91-11.55a111.63 111.63 0 00-6-10.66c-2.71-4.7-5.38-9.43-7.68-14.33a63.44 63.44 0 00-5.71-10.46c-.87-1.21-1-2.81-1.75-4.19-2.15-4.14-4.66-8.1-6.44-12.47a29.3 29.3 0 013.29-5.36c2.09 1.57 59.04 106.65 59.98 109.23z" transform="translate(-145.11 -55.18)" id="path46"/>
    <path class="cls-1" d="M297.3 319.38a27 27 0 01-6.47 0c-2-3.41-4.09-6.8-6-10.28q-7-12.56-13.87-25.19c-6.85-12.51-13.66-25.05-20.54-37.54-3.49-6.31-7.09-12.56-10.46-18.95-4.47-8.48-8.84-17-13.59-25.34-1.52-2.66-1.47-4.62.33-6.81.31-.38.4-.95.95-1.16 1 .59.41 1.52.53 2.48 1.27.65 2.46 1.41 2.49 3.29 0 .71 1.19 1.35 1.66 2.13q5.22 8.74 9.83 17.82c1.6 3.17 3.62 6.12 5.29 9.27 3.75 7.05 7.33 14.2 11.44 21 3.59 6 6.73 12.17 10.31 18.13 2.87 4.79 5.38 9.81 8.08 14.71 5.38 9.73 10.8 19.43 16.13 29.19 1.24 2.35 2.82 4.47 3.89 7.25z" transform="translate(-145.11 -55.18)" id="path48"/>
    <path class="cls-1" d="M211.1 223.36c.49-2 1.69-3.43 2.47-5 .88.05 1 .6 1.27 1q6.34 11.75 12.66 23.51 10.65 19.82 21.29 39.65 5.09 9.4 10 18.92c1.75 3.39 3.44 6.81 5.29 10.14.68 1.22 1.32 2.4.34 4 2.66.19 2.89 2.24 4 4.06h-7.41c.15-2.28-1.34-4.12-2.38-6.07-3.52-6.59-7.29-13.05-10.82-19.63-3.69-6.88-7.21-13.86-10.84-20.77-3.48-6.61-7-13.19-10.48-19.8-2.13-4.06-4.14-8.18-6.22-12.26-1.46-2.88-2.85-5.79-4.47-8.58a60 60 0 01-2.71-5.74 25.6 25.6 0 00-1.99-3.43z" transform="translate(-145.11 -55.18)" id="path50"/>
    <path class="cls-1" d="M197.48 246.71c1-1.37 1.66-3.36 3.31-5.2 7.07 13 13.67 26 20.4 38.92s13.42 26 20.31 39.42l-6.62.37c-7.12-11.84-13.26-24.11-19.4-36.37s-12.59-24.15-18-37.14z" transform="translate(-145.11 -55.18)" id="path52"/>
    <path class="cls-1" d="M195.73 250c3.51 3.92 5.24 8.47 7.37 12.73 2.91 5.84 6 11.57 9 17.41 3.29 6.6 6.83 13.09 10.1 19.7s6.59 13.37 10.33 20.33h-5.77a1.33 1.33 0 01-1.19-.84c-3.86-7.9-8.36-15.45-12.48-23.21q-5.61-10.58-10.95-21.28c-1.89-3.78-3.44-7.73-5.2-11.57-1-2.24-2.14-4.42-3.23-6.63-.33-.67-.93-1.31-.5-2.12.79-1.52 1.62-2.94 2.52-4.52z" transform="translate(-145.11 -55.18)" id="path54"/>
    <path class="cls-1" d="M223.22 320.21h-5.14a3.69 3.69 0 01-1.74-.25 1.86 1.86 0 01-.82-1.51c-.45-3.21-2.9-5.35-4.22-8.1-3.3-6.88-7.29-13.39-10.7-20.23-2.53-5.07-4.85-10.26-7.61-15.23-1.72-3.1-2.89-6.5-4.31-9.76a1.86 1.86 0 01-.12-1.72c1-1.57 1.45-3.44 2.55-4.84 1-.14 1.34.56 1.61 1.15 1.91 4.14 4.37 8 5.94 12.34.5 1.39 1.64 2.55 2.33 3.89q6.13 11.86 12.19 23.78c2.88 5.66 5.69 11.36 8.51 17.05.52 1.02.95 2.11 1.53 3.43z" transform="translate(-145.11 -55.18)" id="path56"/>
    <path class="cls-1" d="M183.84 271.44a39.6 39.6 0 013.14-5.18c9 18.06 18.07 35.66 26.7 53.72a24.65 24.65 0 01-5.81.21c-9.2-15.62-16.65-32.02-24.03-48.75z" transform="translate(-145.11 -55.18)" id="path58"/>
    <path class="cls-1" d="M205.41 320a29.66 29.66 0 01-5.22.19c-1-2.51-2.7-4.54-4-6.78-2.91-4.92-4.59-10.39-7.42-15.32a27.66 27.66 0 00-2.69-4.29 13.75 13.75 0 01-2.47-4.39c-1-2.82-2.78-5.23-3.81-8a3.47 3.47 0 01.42-3.76c.82-1 1.48-2.2 2.48-3.69z" transform="translate(-145.11 -55.18)" id="path60"/>
    <path class="cls-1" d="M177.79 283.26a39.53 39.53 0 012.49 4.4c3.32 7.25 6.64 14.49 10.08 21.68.76 1.6 1.6 3.17 2.35 4.78a8 8 0 002.75 3.57 2.66 2.66 0 011.44 2.2 2 2 0 01-1.52.4c-5.16.21-5.92-.28-8.13-5-2-4.22-4.22-8.34-5.95-12.66-1.31-3.3-2.74-6.57-3.85-10a4 4 0 01-.23-1.24v-8.07z" transform="translate(-145.11 -55.18)" id="path62"/>
    <path class="cls-1" d="M177.64 299c3.59 6.75 6.65 13.76 10.05 20.84-2 .54-3.77.34-5.49.55-.82.11-1.3-.6-1.7-1.31a30.13 30.13 0 01-1.63-4.26c-.45-1.18-.52-2.5-1.49-3.46a1.43 1.43 0 01-.3-.94v-11.3z" transform="translate(-145.11 -55.18)" id="path64"/>
    <path class="cls-1" d="M442.73 297.73c-2.24-1.11-3.9-2.74-5.91-3.85-1.49-.82-1-2.26-.8-3.51a1.42 1.42 0 011.55.35c.69.5 1.34 1 2 1.56s1.67 1.45 2.72.78c1.27-.81 0-1.79-.09-2.84a44 44 0 016.08.1 2.26 2.26 0 01-.84 3.31 18.54 18.54 0 00-4.71 4.1z" transform="translate(-145.11 -55.18)" id="path66"/>
    <path d="M342.92 130.32c.49 3.52-.53 6.86-1.53 10.19a10.35 10.35 0 01-2.87 4.45 41.89 41.89 0 01-7.15 5.25c-4.44 2.72-9.46 3.49-14.36 4.71a1.78 1.78 0 01-.51.06c-5.69-.37-11.37-.8-16.18-4.39a25 25 0 01-3.89-2.85 19.09 19.09 0 01-4.9-11.22 49.5 49.5 0 01-.4-10.89 15.37 15.37 0 011.87-5.72 67.63 67.63 0 013.89-6 18.33 18.33 0 016.47-6c5.05-2.65 10.37-4.51 16.33-3.15 4.4 1 8.9 1.74 12.47 4.73a36.7 36.7 0 019.89 12.7c1.15 2.51 1.07 5.35.87 8.13zm-29.85 19.82h3.31c5.51.34 10.32-1.8 14.76-4.62s6.71-7 7.64-12.07c.88-4.77.35-9.4-2.45-13.38s-6-7.41-10.53-9.33c-2.81-1.19-5.63-2.36-8.78-2.39-6.38 0-11.3 3.09-15.74 7.19a19.5 19.5 0 00-3.32 3.85 21.66 21.66 0 00-3.1 17 12.4 12.4 0 001.46 3.76c1.7 2.76 4.07 4.94 6.26 7.27a8.31 8.31 0 005.9 2.63c1.52.11 3.06.08 4.59.09z" transform="translate(-145.11 -55.18)" id="path68"/>
    <path d="M263.87 105.47a2.06 2.06 0 01-.74 1.55 9.38 9.38 0 00-6.07.49 5.31 5.31 0 00-2.53 1.56 1.27 1.27 0 01-2.3-.09c-1.37-2.07-3.4-2.33-5.59-2.29a5.1 5.1 0 01-2.26-.21 1.66 1.66 0 01-1.15-1.77c.08-.87.76-1 1.46-1.12 2.7-.6 5.07.32 7.23 1.7a3.65 3.65 0 003.78.36 12.88 12.88 0 016.47-1 2.14 2.14 0 011.7.82z" transform="translate(-145.11 -55.18)" id="path70"/>
    <path d="M269.72 101a1.26 1.26 0 01-1.34-.4c-2.07-2.57-5-2.57-7.86-2.59-.9 0-1.83.51-2.76-.22-.44-1.32.54-1.79 1.49-2.12a8.45 8.45 0 015.72.07 5.36 5.36 0 011.38.62 3.94 3.94 0 005.11-.15c2-1.51 4.27-1.21 6.42-1.52.63 1.06.44 1.67-.47 2a12.12 12.12 0 01-1.47.36c-2.57.6-5.04 1.4-6.22 3.95z" transform="translate(-145.11 -55.18)" id="path72"/>
    <path d="M289.89 103.16a11.27 11.27 0 01-1.33-.68 5.52 5.52 0 00-6-.42 4 4 0 01-3.77.28 4.75 4.75 0 013.47-2.77c1.92-.3 3.81-.84 5.75 0a3 3 0 002.45-.32c2.44-1.09 5-.76 7.48-.45.2 0 .37.3.56.47.05 1-.55 1.39-1.36 1.5a4.85 4.85 0 01-1.52 0c-2.32-.39-4.11.58-5.73 2.39z" transform="translate(-145.11 -55.18)" id="path74"/>
    <path d="M400.76 200.41c.46-2.77 2.59-4.17 5.4-4.23s4.93 1 7.35 2.12c1.81-2.17 4.3-2.17 6.75-2 1.84.1 2.31 1.4 1.21 3.29-2.72-1.62-4.91-.85-6.83 1.52a1.6 1.6 0 01-2.8 0c-1.82-2.51-3.84-2.2-6.25-1-1.48.65-3.16 1.16-4.83.3z" transform="translate(-145.11 -55.18)" id="path76"/>
    <path d="M420 205.89c3.42-3.07 7.22-2.4 11.08-1.34 3.46-2.19 7.62-2.82 10.25-1.51a1.47 1.47 0 01-1.65 1.46 17.78 17.78 0 00-2.53 0c-1.74.27-3.46.47-4.36 2.49a2 2 0 01-3.39.45c-2-2-4.16-1.93-6.54-1-.94.34-1.86.9-2.86-.55z" transform="translate(-145.11 -55.18)" id="path78"/>
    <path class="water" d="M281.09 351c-.61-1.41.15-2 1.32-2.09s2.36.1 3.54.11c5.87 0 11.73 0 17.59.05 5.27 0 10.54.14 15.8 0 23.78-.39 47.56 0 71.34-.2 3.65 0 7.29-.12 10.93-.18a9.76 9.76 0 011.53 0 1.27 1.27 0 011.11 1.46c0 .74-.55 1-1.2 1h-1.53c-21.16-.07-42.31-.19-63.47-.2-13.58 0-27.15.18-40.73.25h-14a4.19 4.19 0 01-2.23-.2z" transform="translate(-145.11 -55.18)" id="path80"/>
    <path class="water" d="M209.25 370.73c-.18-1.1.41-1.45 1.28-1.52 2.12-.18 4.23-.42 6.35-.51 11.54-.44 23.09-.39 34.64-.43 7.8 0 15.61-.13 23.42-.16q16.43-.09 32.85-.11c.94 0 2.44-.38 2.43 1s-1.55 1.26-2.59 1.26c-7.56 0-15.12-.18-22.68 0-9.85.21-19.7.15-29.55.2h-11.2c-8.75.13-17.49.26-26.24.45a72.48 72.48 0 01-7.37.22 1.87 1.87 0 01-1.34-.4z" transform="translate(-145.11 -55.18)" id="path82"/>
    <path class="water" d="M457.59 369c-.52 1.36-1.59 1.3-2.61 1.3-9.09-.06-18.19-.15-27.28-.18q-26.38-.06-52.78-.08a13.3 13.3 0 01-2.28-.12 1.14 1.14 0 01-1-1.3c.05-.59.54-.81 1.09-.87a4.07 4.07 0 01.5 0c5.78 0 11.55.08 17.32 0h6.61c4.48-.16 9-.19 13.46 0 5.26.22 10.52.09 15.77 0 8.16-.18 16.31 0 24.47.06 1.36 0 2.72-.08 4.07-.09 1.07-.09 2.07-.06 2.66 1.28z" transform="translate(-145.11 -55.18)" id="path84"/>
    <path class="water" d="M390.09 332.65l12.15.05c11.05 0 22.09.09 33.14.07 9.16 0 18.31-.35 27.47.09a37.61 37.61 0 006.87-.25c1-.14 2.1-.16 2.18 1.33-.79 1.05-1.89.73-2.86.73-8.32 0-16.65-.08-25-.07-6.95 0-13.9.26-20.85.08-10.45-.27-20.89.25-31.34 0-1.77.01-1.85-.12-1.76-2.03z" transform="translate(-145.11 -55.18)" id="path86"/>
    <path d="M370.24 333.78c-.48 1.14-1.41.94-2.23.94-12.06 0-24.13-.08-36.2 0-13.17 0-26.33.19-39.5.29a6.78 6.78 0 01-2-.11 1.47 1.47 0 01-1.08-2c.29-.86 1.05-.76 1.7-.45a8.8 8.8 0 003.76.54h32.82c9.1 0 18.19.07 27.29 0 4.33 0 8.66-.3 13-.23 1-.03 2.03-.21 2.44 1.02z" transform="translate(-145.11 -55.18)" id="path88" class="water"/>
    <path class="water" d="M196 338.16c-2-4.46-1.73-4.77 2.3-4.62 4.74.18 9.49.09 14.23.07 7.22 0 14.43-.1 21.64-.14a13.42 13.42 0 003-.23 5.19 5.19 0 011.76 0 1.22 1.22 0 011.16 1.4c-.05.73-.55 1-1.2 1.07h-1q-15.78 0-31.57-.07c-2.45 0-4.91.22-7.37.23a2.57 2.57 0 00-2.95 2.29z" transform="translate(-145.11 -55.18)" id="path90"/>
    <path class="water" d="M184.42 353.57c-.77-1.26-1.34-2.21-1.22-3.34.71-1 1.68-.7 2.6-.69 7.21 0 14.43.11 21.65 0 5.17-.11 10.35-.08 15.52-.15a11.84 11.84 0 003-.27 2.58 2.58 0 012 .16 1.14 1.14 0 01.68 1.24 1 1 0 01-.77.92 5.84 5.84 0 01-1.5.16c-10.62-.22-21.24-.13-31.85-.06-2.63 0-5.26.25-7.89.26-1.21-.02-1.79.63-2.22 1.77z" transform="translate(-145.11 -55.18)" id="path92"/>
    <path class="water" d="M436.49 351.27h-8.65a15 15 0 01-1.78-.07c-.78-.11-1.62-.31-1.48-1.33.11-.82.81-.93 1.56-.93h14.25c3.14 0 6.28-.09 9.42-.13.81 0 1.88-.35 2 .94s-.95 1.14-1.81 1.24a118.67 118.67 0 01-13.51.28z" transform="translate(-145.11 -55.18)" id="path94"/>
    <path class="water" d="M344.64 367.63l9.92.05a10.45 10.45 0 011.77.1 1 1 0 01.88 1.06 1 1 0 01-.92 1 15.35 15.35 0 01-2 .11h-20.32c-.79 0-1.61-.09-1.61-1.16s.84-1.13 1.62-1.13h10.69z" transform="translate(-145.11 -55.18)" id="path96"/>
    <path class="water" d="M268.39 350.86a13 13 0 01-4.69.66c-5 0-10-.11-15 .25a2 2 0 01-1.45-.31 1.13 1.13 0 01.17-2 4.17 4.17 0 011.75-.26 114.44 114.44 0 0015.27-.11 18.69 18.69 0 012.8 0c.95.04 1.52.56 1.15 1.77z" transform="translate(-145.11 -55.18)" id="path98"/>
    <path class="water" d="M273.79 334c-.09 1-.85 1.16-1.64 1.16q-8.13 0-16.27.06c-.81 0-1.57-.1-1.52-1.2 1.57-.92 9.31-1.31 17.53-.9.74.08 1.57-.04 1.9.88z" transform="translate(-145.11 -55.18)" id="path100"/>
    <path class="cls-1" d="M313.07 150.14h-4.59a8.31 8.31 0 01-5.9-2.63c-2.19-2.33-4.56-4.51-6.26-7.27a12.4 12.4 0 01-1.46-3.76 21.66 21.66 0 013.1-17 19.5 19.5 0 013.32-3.85c4.44-4.1 9.36-7.23 15.74-7.19 3.15 0 6 1.2 8.78 2.39 4.52 1.92 7.8 5.43 10.53 9.33s3.33 8.61 2.45 13.38c-.93 5.05-3.31 9.32-7.64 12.07s-9.25 5-14.76 4.62c-1.1-.07-2.21 0-3.31 0z" transform="translate(-145.11 -55.18)" id="path102"/>
</svg>
